<svg width="80" height="79" viewBox="0 0 80 79" fill="none" xmlns="http://www.w3.org/2000/svg">
<g clip-path="url(#clip0_6_657)">
<path d="M40.0001 56.4281C49.3874 56.4281 56.9973 48.8134 56.9973 39.4203C56.9973 30.0271 49.3874 22.4125 40.0001 22.4125C30.6128 22.4125 23.0029 30.0271 23.0029 39.4203C23.0029 48.8134 30.6128 56.4281 40.0001 56.4281Z" stroke="#141335" stroke-miterlimit="10"/>
<path d="M69.8017 11.2252L57.0349 23.9999" stroke="#141335" stroke-miterlimit="10"/>
<path d="M51.7091 0.113403L47.0254 17.5369" stroke="#141335" stroke-miterlimit="10"/>
<path d="M31.9924 5.14014L35.1652 16.9322" stroke="#141335" stroke-miterlimit="10"/>
<path d="M11.8225 9.59998L24.5893 22.3747" stroke="#141335" stroke-miterlimit="10"/>
<path d="M10.1982 30.2361L18.1303 32.3904" stroke="#141335" stroke-miterlimit="10"/>
<path d="M0.113281 48.9446L17.5259 44.2581" stroke="#141335" stroke-miterlimit="10"/>
<path d="M12.6157 65.1966L22.9651 54.8407" stroke="#141335" stroke-miterlimit="10"/>
<path d="M28.2908 78.765L32.9367 61.3036" stroke="#141335" stroke-miterlimit="10"/>
<path d="M47.1766 70.6391L44.8347 61.9084" stroke="#141335" stroke-miterlimit="10"/>
<path d="M68.1774 69.2406L55.4106 56.4659" stroke="#141335" stroke-miterlimit="10"/>
<path d="M73.4277 49.5872L61.8696 46.488" stroke="#141335" stroke-miterlimit="10"/>
<path d="M79.8868 29.9337L62.4741 34.5825" stroke="#141335" stroke-miterlimit="10"/>
</g>
<defs>
<clipPath id="clip0_6_657">
<rect width="80" height="78.8406" fill="white"/>
</clipPath>
</defs>
</svg>
