<svg width="23" height="23" viewBox="0 0 23 23" fill="none" xmlns="http://www.w3.org/2000/svg">
<g clip-path="url(#clip0_6_233)">
<path d="M5.07171 14.0312L4.27513 16.9766L1.36365 17.0377C0.493539 15.4392 0 13.6103 0 11.6668C0 9.78746 0.461447 8.01521 1.27939 6.45471H1.28002L3.87206 6.9254L5.00753 9.47735C4.76988 10.1636 4.64035 10.9003 4.64035 11.6668C4.64044 12.4987 4.79258 13.2958 5.07171 14.0312Z" fill="#FBBB00"/>
<path d="M22.6847 9.54962C22.8161 10.2352 22.8846 10.9432 22.8846 11.6668C22.8846 12.4782 22.7985 13.2697 22.6344 14.0331C22.0774 16.6311 20.6219 18.8996 18.6057 20.505L18.6051 20.5043L15.3403 20.3394L14.8782 17.4823C16.2161 16.7052 17.2616 15.489 17.8124 14.0331H11.6938V9.54962H17.9016H22.6847Z" fill="#518EF8"/>
<path d="M18.6051 20.5044L18.6057 20.505C16.6448 22.0661 14.1539 23.0002 11.4423 23.0002C7.0848 23.0002 3.29628 20.5879 1.36365 17.0378L5.07171 14.0313C6.03801 16.5857 8.52577 18.404 11.4423 18.404C12.6959 18.404 13.8704 18.0684 14.8781 17.4824L18.6051 20.5044Z" fill="#28B446"/>
<path d="M18.7459 2.94264L15.039 5.94845C13.9961 5.30272 12.7631 4.92969 11.4423 4.92969C8.45972 4.92969 5.92543 6.83144 5.00754 9.47737L1.27998 6.45474H1.27936C3.1837 2.81811 7.02 0.333496 11.4423 0.333496C14.2186 0.333496 16.7642 1.31303 18.7459 2.94264Z" fill="#F14336"/>
</g>
<defs>
<clipPath id="clip0_6_233">
<rect y="0.333496" width="22.8846" height="22.6667" rx="9" fill="white"/>
</clipPath>
</defs>
</svg>
